<svg width="840" height="240" viewBox="0 0 840 240" fill="none" xmlns="http://www.w3.org/2000/svg">
<path d="M503.772 82.528C501.308 82.528 498.947 82.2053 496.688 81.56C494.429 80.8853 492.611 80.02 491.232 78.964L493.652 73.596C494.972 74.5347 496.527 75.312 498.316 75.928C500.135 76.5147 501.968 76.808 503.816 76.808C505.224 76.808 506.353 76.676 507.204 76.412C508.084 76.1187 508.729 75.7227 509.14 75.224C509.551 74.7253 509.756 74.1533 509.756 73.508C509.756 72.6867 509.433 72.0413 508.788 71.572C508.143 71.0733 507.292 70.6773 506.236 70.384C505.18 70.0613 504.007 69.768 502.716 69.504C501.455 69.2107 500.179 68.8587 498.888 68.448C497.627 68.0373 496.468 67.5093 495.412 66.864C494.356 66.2187 493.491 65.368 492.816 64.312C492.171 63.256 491.848 61.9067 491.848 60.264C491.848 58.504 492.317 56.9053 493.256 55.468C494.224 54.0013 495.661 52.8427 497.568 51.992C499.504 51.112 501.924 50.672 504.828 50.672C506.764 50.672 508.671 50.9067 510.548 51.376C512.425 51.816 514.083 52.4907 515.52 53.4L513.32 58.812C511.883 57.9907 510.445 57.3893 509.008 57.008C507.571 56.5973 506.163 56.392 504.784 56.392C503.405 56.392 502.276 56.5533 501.396 56.876C500.516 57.1987 499.885 57.624 499.504 58.152C499.123 58.6507 498.932 59.2373 498.932 59.912C498.932 60.704 499.255 61.3493 499.9 61.848C500.545 62.3173 501.396 62.6987 502.452 62.992C503.508 63.2853 504.667 63.5787 505.928 63.872C507.219 64.1653 508.495 64.5027 509.756 64.884C511.047 65.2653 512.22 65.7787 513.276 66.424C514.332 67.0693 515.183 67.92 515.828 68.976C516.503 70.032 516.84 71.3667 516.84 72.98C516.84 74.7107 516.356 76.2947 515.388 77.732C514.42 79.1693 512.968 80.328 511.032 81.208C509.125 82.088 506.705 82.528 503.772 82.528ZM536.451 82.528C534.075 82.528 531.86 82.1467 529.807 81.384C527.783 80.592 526.023 79.4773 524.527 78.04C523.031 76.6027 521.857 74.916 521.007 72.98C520.185 71.044 519.775 68.9173 519.775 66.6C519.775 64.2827 520.185 62.156 521.007 60.22C521.857 58.284 523.031 56.5973 524.527 55.16C526.052 53.7227 527.827 52.6227 529.851 51.86C531.875 51.068 534.089 50.672 536.495 50.672C539.164 50.672 541.569 51.1413 543.711 52.08C545.881 52.9893 547.7 54.3387 549.167 56.128L544.591 60.352C543.535 59.1493 542.361 58.2547 541.071 57.668C539.78 57.052 538.372 56.744 536.847 56.744C535.409 56.744 534.089 56.9787 532.887 57.448C531.684 57.9173 530.643 58.592 529.763 59.472C528.883 60.352 528.193 61.3933 527.695 62.596C527.225 63.7987 526.991 65.1333 526.991 66.6C526.991 68.0667 527.225 69.4013 527.695 70.604C528.193 71.8067 528.883 72.848 529.763 73.728C530.643 74.608 531.684 75.2827 532.887 75.752C534.089 76.2213 535.409 76.456 536.847 76.456C538.372 76.456 539.78 76.1627 541.071 75.576C542.361 74.96 543.535 74.036 544.591 72.804L549.167 77.028C547.7 78.8173 545.881 80.1813 543.711 81.12C541.569 82.0587 539.149 82.528 536.451 82.528ZM574.67 82V51.2H581.798V82H574.67ZM553.55 82V51.2H560.678V82H553.55ZM560.15 69.372V63.344H575.198V69.372H560.15ZM604.046 82.528C601.611 82.528 599.352 82.132 597.27 81.34C595.216 80.548 593.427 79.4333 591.902 77.996C590.406 76.5587 589.232 74.872 588.382 72.936C587.56 71 587.15 68.888 587.15 66.6C587.15 64.312 587.56 62.2 588.382 60.264C589.232 58.328 590.42 56.6413 591.946 55.204C593.471 53.7667 595.26 52.652 597.314 51.86C599.367 51.068 601.596 50.672 604.002 50.672C606.436 50.672 608.666 51.068 610.69 51.86C612.743 52.652 614.518 53.7667 616.014 55.204C617.539 56.6413 618.727 58.328 619.578 60.264C620.428 62.1707 620.854 64.2827 620.854 66.6C620.854 68.888 620.428 71.0147 619.578 72.98C618.727 74.916 617.539 76.6027 616.014 78.04C614.518 79.448 612.743 80.548 610.69 81.34C608.666 82.132 606.451 82.528 604.046 82.528ZM604.002 76.456C605.38 76.456 606.642 76.2213 607.786 75.752C608.959 75.2827 609.986 74.608 610.866 73.728C611.746 72.848 612.42 71.8067 612.89 70.604C613.388 69.4013 613.638 68.0667 613.638 66.6C613.638 65.1333 613.388 63.7987 612.89 62.596C612.42 61.3933 611.746 60.352 610.866 59.472C610.015 58.592 609.003 57.9173 607.83 57.448C606.656 56.9787 605.38 56.744 604.002 56.744C602.623 56.744 601.347 56.9787 600.174 57.448C599.03 57.9173 598.018 58.592 597.138 59.472C596.258 60.352 595.568 61.3933 595.07 62.596C594.6 63.7987 594.366 65.1333 594.366 66.6C594.366 68.0373 594.6 69.372 595.07 70.604C595.568 71.8067 596.243 72.848 597.094 73.728C597.974 74.608 599 75.2827 600.174 75.752C601.347 76.2213 602.623 76.456 604.002 76.456ZM608.446 48.472C607.595 48.472 606.876 48.1933 606.29 47.636C605.703 47.0787 605.41 46.3453 605.41 45.436C605.41 44.5267 605.703 43.7933 606.29 43.236C606.876 42.6787 607.595 42.4 608.446 42.4C609.296 42.4 610.015 42.6787 610.602 43.236C611.218 43.7933 611.526 44.5267 611.526 45.436C611.526 46.3453 611.218 47.0787 610.602 47.636C610.015 48.1933 609.296 48.472 608.446 48.472ZM599.558 48.472C598.707 48.472 597.974 48.1933 597.358 47.636C596.771 47.0787 596.478 46.3453 596.478 45.436C596.478 44.5267 596.771 43.7933 597.358 43.236C597.974 42.6787 598.707 42.4 599.558 42.4C600.408 42.4 601.127 42.6787 601.714 43.236C602.3 43.7933 602.594 44.5267 602.594 45.436C602.594 46.3453 602.3 47.0787 601.714 47.636C601.127 48.1933 600.408 48.472 599.558 48.472ZM626.211 82V51.2H632.107L650.279 73.376H647.419V51.2H654.459V82H648.607L630.391 59.824H633.251V82H626.211ZM682.866 82V51.2H689.994V82H682.866ZM661.746 82V51.2H668.874V82H661.746ZM668.346 69.372V63.344H683.394V69.372H668.346ZM697.281 82V51.2H720.557V56.92H704.365V76.28H721.129V82H697.281ZM703.837 69.152V63.608H718.665V69.152H703.837ZM726.8 82V51.2H739.956C744.239 51.2 747.568 52.1973 749.944 54.192C752.32 56.1573 753.508 58.8853 753.508 62.376C753.508 64.664 752.966 66.644 751.88 68.316C750.795 69.9587 749.255 71.22 747.26 72.1C745.266 72.98 742.89 73.42 740.132 73.42H730.76L733.928 70.296V82H726.8ZM746.38 82L738.68 70.824H746.292L754.08 82H746.38ZM733.928 71.088L730.76 67.744H739.736C741.936 67.744 743.579 67.2747 744.664 66.336C745.75 65.368 746.292 64.048 746.292 62.376C746.292 60.6747 745.75 59.3547 744.664 58.416C743.579 57.4773 741.936 57.008 739.736 57.008H730.76L733.928 53.62V71.088ZM757.176 82V77.38L776.228 54.412L777.108 57.008H757.528V51.2H783.444V55.82L764.436 78.788L763.556 76.192H784.104V82H757.176ZM502.892 136L489.604 105.2H497.304L508.92 132.48H504.388L516.18 105.2H523.264L509.932 136H502.892ZM520.756 136L534.484 105.2H541.524L555.296 136H547.816L536.552 108.808H539.368L528.06 136H520.756ZM527.62 129.4L529.512 123.988H545.352L547.288 129.4H527.62ZM534 102.692L539.94 96.356H547.332L539.368 102.692H534ZM558.492 136V105.2H565.62V130.192H581.064V136H558.492ZM585.047 136V105.2H592.175V130.192H607.619V136H585.047ZM607.725 136L621.453 105.2H628.493L642.265 136H634.785L623.521 108.808H626.337L615.029 136H607.725ZM614.589 129.4L616.481 123.988H632.321L634.257 129.4H614.589ZM645.461 136V105.2H652.589V130.192H668.033V136H645.461ZM668.139 136L681.867 105.2H688.907L702.679 136H695.199L683.935 108.808H686.751L675.443 136H668.139ZM675.003 129.4L676.895 123.988H692.735L694.671 129.4H675.003ZM710.708 136V111.008H700.852V105.2H727.692V111.008H717.836V136H710.708ZM731.527 136V105.2H738.655V136H731.527ZM500.032 182.96L499.636 174.732L514.376 159.2H522.296L509.008 173.5L505.048 177.724L500.032 182.96ZM493.652 190V159.2H500.736V190H493.652ZM514.728 190L503.772 176.58L508.436 171.52L523.044 190H514.728ZM520.756 190L534.484 159.2H541.524L555.296 190H547.816L536.552 162.808H539.368L528.06 190H520.756ZM527.62 183.4L529.512 177.988H545.352L547.288 183.4H527.62ZM558.492 190V159.2H571.824C574.581 159.2 576.957 159.655 578.952 160.564C580.947 161.444 582.487 162.72 583.572 164.392C584.657 166.064 585.2 168.059 585.2 170.376C585.2 172.664 584.657 174.644 583.572 176.316C582.487 177.988 580.947 179.279 578.952 180.188C576.957 181.068 574.581 181.508 571.824 181.508H562.452L565.62 178.296V190H558.492ZM565.62 179.088L562.452 175.7H571.428C573.628 175.7 575.271 175.231 576.356 174.292C577.441 173.353 577.984 172.048 577.984 170.376C577.984 168.675 577.441 167.355 576.356 166.416C575.271 165.477 573.628 165.008 571.428 165.008H562.452L565.62 161.62V179.088ZM605.458 190.528C603.082 190.528 600.868 190.147 598.814 189.384C596.79 188.592 595.03 187.477 593.534 186.04C592.038 184.603 590.865 182.916 590.014 180.98C589.193 179.044 588.782 176.917 588.782 174.6C588.782 172.283 589.193 170.156 590.014 168.22C590.865 166.284 592.038 164.597 593.534 163.16C595.06 161.723 596.834 160.623 598.858 159.86C600.882 159.068 603.097 158.672 605.502 158.672C608.172 158.672 610.577 159.141 612.718 160.08C614.889 160.989 616.708 162.339 618.174 164.128L613.598 168.352C612.542 167.149 611.369 166.255 610.078 165.668C608.788 165.052 607.38 164.744 605.854 164.744C604.417 164.744 603.097 164.979 601.894 165.448C600.692 165.917 599.65 166.592 598.77 167.472C597.89 168.352 597.201 169.393 596.702 170.596C596.233 171.799 595.998 173.133 595.998 174.6C595.998 176.067 596.233 177.401 596.702 178.604C597.201 179.807 597.89 180.848 598.77 181.728C599.65 182.608 600.692 183.283 601.894 183.752C603.097 184.221 604.417 184.456 605.854 184.456C607.38 184.456 608.788 184.163 610.078 183.576C611.369 182.96 612.542 182.036 613.598 180.804L618.174 185.028C616.708 186.817 614.889 188.181 612.718 189.12C610.577 190.059 608.157 190.528 605.458 190.528ZM632.506 190.528C630.042 190.528 627.681 190.205 625.422 189.56C623.164 188.885 621.345 188.02 619.966 186.964L622.386 181.596C623.706 182.535 625.261 183.312 627.05 183.928C628.869 184.515 630.702 184.808 632.55 184.808C633.958 184.808 635.088 184.676 635.938 184.412C636.818 184.119 637.464 183.723 637.874 183.224C638.285 182.725 638.49 182.153 638.49 181.508C638.49 180.687 638.168 180.041 637.522 179.572C636.877 179.073 636.026 178.677 634.97 178.384C633.914 178.061 632.741 177.768 631.45 177.504C630.189 177.211 628.913 176.859 627.622 176.448C626.361 176.037 625.202 175.509 624.146 174.864C623.09 174.219 622.225 173.368 621.55 172.312C620.905 171.256 620.582 169.907 620.582 168.264C620.582 166.504 621.052 164.905 621.99 163.468C622.958 162.001 624.396 160.843 626.302 159.992C628.238 159.112 630.658 158.672 633.562 158.672C635.498 158.672 637.405 158.907 639.282 159.376C641.16 159.816 642.817 160.491 644.254 161.4L642.054 166.812C640.617 165.991 639.18 165.389 637.742 165.008C636.305 164.597 634.897 164.392 633.518 164.392C632.14 164.392 631.01 164.553 630.13 164.876C629.25 165.199 628.62 165.624 628.238 166.152C627.857 166.651 627.666 167.237 627.666 167.912C627.666 168.704 627.989 169.349 628.634 169.848C629.28 170.317 630.13 170.699 631.186 170.992C632.242 171.285 633.401 171.579 634.662 171.872C635.953 172.165 637.229 172.503 638.49 172.884C639.781 173.265 640.954 173.779 642.01 174.424C643.066 175.069 643.917 175.92 644.562 176.976C645.237 178.032 645.574 179.367 645.574 180.98C645.574 182.711 645.09 184.295 644.122 185.732C643.154 187.169 641.702 188.328 639.766 189.208C637.86 190.088 635.44 190.528 632.506 190.528ZM665.405 190.528C662.97 190.528 660.712 190.132 658.629 189.34C656.576 188.548 654.786 187.433 653.261 185.996C651.765 184.559 650.592 182.872 649.741 180.936C648.92 179 648.509 176.888 648.509 174.6C648.509 172.312 648.92 170.2 649.741 168.264C650.592 166.328 651.78 164.641 653.305 163.204C654.83 161.767 656.62 160.652 658.673 159.86C660.726 159.068 662.956 158.672 665.361 158.672C667.796 158.672 670.025 159.068 672.049 159.86C674.102 160.652 675.877 161.767 677.373 163.204C678.898 164.641 680.086 166.328 680.937 168.264C681.788 170.171 682.213 172.283 682.213 174.6C682.213 176.888 681.788 179.015 680.937 180.98C680.086 182.916 678.898 184.603 677.373 186.04C675.877 187.448 674.102 188.548 672.049 189.34C670.025 190.132 667.81 190.528 665.405 190.528ZM665.361 184.456C666.74 184.456 668.001 184.221 669.145 183.752C670.318 183.283 671.345 182.608 672.225 181.728C673.105 180.848 673.78 179.807 674.249 178.604C674.748 177.401 674.997 176.067 674.997 174.6C674.997 173.133 674.748 171.799 674.249 170.596C673.78 169.393 673.105 168.352 672.225 167.472C671.374 166.592 670.362 165.917 669.189 165.448C668.016 164.979 666.74 164.744 665.361 164.744C663.982 164.744 662.706 164.979 661.533 165.448C660.389 165.917 659.377 166.592 658.497 167.472C657.617 168.352 656.928 169.393 656.429 170.596C655.96 171.799 655.725 173.133 655.725 174.6C655.725 176.037 655.96 177.372 656.429 178.604C656.928 179.807 657.602 180.848 658.453 181.728C659.333 182.608 660.36 183.283 661.533 183.752C662.706 184.221 663.982 184.456 665.361 184.456ZM687.57 190V159.2H694.698V184.192H710.142V190H687.57ZM710.249 190L723.977 159.2H731.017L744.789 190H737.309L726.045 162.808H728.861L717.553 190H710.249ZM717.113 183.4L719.005 177.988H734.845L736.781 183.4H717.113ZM752.817 190V165.008H742.961V159.2H769.801V165.008H759.945V190H752.817ZM788.167 190.528C785.732 190.528 783.473 190.132 781.391 189.34C779.337 188.548 777.548 187.433 776.023 185.996C774.527 184.559 773.353 182.872 772.503 180.936C771.681 179 771.271 176.888 771.271 174.6C771.271 172.312 771.681 170.2 772.503 168.264C773.353 166.328 774.541 164.641 776.067 163.204C777.592 161.767 779.381 160.652 781.435 159.86C783.488 159.068 785.717 158.672 788.123 158.672C790.557 158.672 792.787 159.068 794.811 159.86C796.864 160.652 798.639 161.767 800.135 163.204C801.66 164.641 802.848 166.328 803.699 168.264C804.549 170.171 804.975 172.283 804.975 174.6C804.975 176.888 804.549 179.015 803.699 180.98C802.848 182.916 801.66 184.603 800.135 186.04C798.639 187.448 796.864 188.548 794.811 189.34C792.787 190.132 790.572 190.528 788.167 190.528ZM788.123 184.456C789.501 184.456 790.763 184.221 791.907 183.752C793.08 183.283 794.107 182.608 794.987 181.728C795.867 180.848 796.541 179.807 797.011 178.604C797.509 177.401 797.759 176.067 797.759 174.6C797.759 173.133 797.509 171.799 797.011 170.596C796.541 169.393 795.867 168.352 794.987 167.472C794.136 166.592 793.124 165.917 791.951 165.448C790.777 164.979 789.501 164.744 788.123 164.744C786.744 164.744 785.468 164.979 784.295 165.448C783.151 165.917 782.139 166.592 781.259 167.472C780.379 168.352 779.689 169.393 779.191 170.596C778.721 171.799 778.487 173.133 778.487 174.6C778.487 176.037 778.721 177.372 779.191 178.604C779.689 179.807 780.364 180.848 781.215 181.728C782.095 182.608 783.121 183.283 784.295 183.752C785.468 184.221 786.744 184.456 788.123 184.456ZM816.712 182.96L816.316 174.732L831.056 159.2H838.976L825.688 173.5L821.728 177.724L816.712 182.96ZM810.332 190V159.2H817.416V190H810.332ZM831.408 190L820.452 176.58L825.116 171.52L839.724 190H831.408Z" fill="black"/>
<path d="M440.688 118.087C440.043 119.269 440.043 120.73 440.688 121.912L480 190H458.35C453.828 190 449.866 187.598 447.672 184L411.813 121.898C411.185 120.734 411.177 119.301 411.796 118.131L449.997 51.9658C450.693 50.7896 451.974 50 453.44 50H480L440.688 118.087Z" fill="black"/>
<path d="M297.3 50C302.028 50 306.14 52.6273 308.264 56.5L370 163.414V54C370 51.7909 371.791 50 374 50H391C393.209 50 395 51.7909 395 54V177.5C395 184.404 389.404 190 382.5 190H363.7C359.177 190 355.216 187.598 353.021 184L293.622 81.124C291.443 77.458 287.445 75.0001 282.871 75H236.5C229.596 75 224 80.5964 224 87.5C224 92.515 226.954 96.838 231.217 98.8291L273.351 118.509C286.138 124.482 295 137.455 295 152.5C295 173.211 278.211 190 257.5 190H195L208.365 166.849C209.076 165.736 210.323 165 211.74 165H257.5C264.404 165 270 159.404 270 152.5C270 147.484 267.045 143.161 262.782 141.17L220.648 121.491C207.861 115.518 199 102.545 199 87.5C199 66.7893 215.789 50 236.5 50H297.3Z" fill="black"/>
<path d="M140 70C140 83.17 140.874 90.5293 145.154 94.8457C159.27 108.961 168 128.461 168 150C168 164.21 164.201 177.533 157.562 189.007C154.137 194.925 149 209 153.64 213.64C169.926 197.353 180 174.853 180 150C180 125.147 169.926 102.647 153.64 86.3604C149.279 82.0001 143.679 75.6702 141.941 71.3301C141.506 70.2482 140.5 70 140 70Z" fill="black"/>
<path d="M130 230V180C130 177.355 127.176 172.761 124 168C120.822 163.239 118 158.645 118 156V148C118.002 145.733 118.911 144.327 119.758 143.069C120.491 141.978 121 140.974 121 139.5V27.9999C121 23.0925 123.357 18.7365 127 15.9999L136 33.9999H135C133.343 33.9999 132 35.3431 132 36.9999V156C132 158.114 135.004 162.905 138 167.5C140.999 172.1 144 176.384 144 178.5V213.5C144 220.906 139.144 225.48 136.588 227.029C134.523 228.279 131.059 230 130 230Z" fill="black"/>
<path d="M71 0C69.8954 0 69 0.895431 69 2V139.5C69 140.973 69.5075 141.977 70.2408 143.067C71.0875 144.326 71.9998 145.732 71.9998 148V156C71.9998 158.645 69.1766 163.238 66 168C62.8236 172.761 60 177.355 60 180V231.5C60 234.66 61.3848 235.367 62.4567 235.711C71.1335 238.493 80.3979 240 89.9998 240C99.6017 240 108.852 238.498 117.529 235.715C118.601 235.371 120 234.66 120 231.5V180C120 177.355 117.176 172.761 114 168C110.822 163.239 108 158.645 108 156V148C108.002 145.733 108.911 144.327 109.758 143.069C110.491 141.978 111 140.974 111 139.5V2C111 0.895431 110.105 0 109 0H71Z" fill="black"/>
<path d="M50.0002 230V180C50.0002 177.355 52.8235 172.761 56 168C59.1775 163.239 62 158.645 62 156V148C61.9979 145.733 61.0894 144.327 60.2423 143.069C59.5085 141.978 59.0002 140.974 59.0002 139.5V28C59.0002 23.0926 56.6433 18.7366 53 16L44 34H45C46.6569 34 48 35.3431 48 37V156C48 158.114 44.9959 162.905 42 167.5C39.0005 172.1 36.0001 176.384 36.0001 178.5V213.5C36.0001 220.906 40.8559 225.48 43.4119 227.029C45.4766 228.279 48.9414 230 50.0002 230Z" fill="black"/>
<path d="M40 70C40 83.17 39.126 90.5293 34.8457 94.8457C20.7305 108.961 12 128.461 12 150C12 164.21 15.7995 177.533 22.4385 189.007C25.8627 194.925 31 209 26.3604 213.64C10.0736 197.353 0 174.853 0 150C0 125.147 10.0736 102.647 26.3604 86.3604C30.7206 82.0001 36.3212 75.6702 38.0586 71.3301C38.494 70.2482 39.5 70 40 70Z" fill="black"/>
<path d="M40 70C40 83.17 39.126 90.5293 34.8457 94.8457C20.7305 108.961 12 128.461 12 150C12 164.21 15.7995 177.533 22.4385 189.007C25.8627 194.925 31 209 26.3604 213.64C10.0736 197.353 0 174.853 0 150C0 125.147 10.0736 102.647 26.3604 86.3604C30.7206 82.0001 36.3212 75.6702 38.0586 71.3301C38.494 70.2482 39.5 70 40 70Z" fill="black"/>
</svg>
